<?xml version="1.0" encoding="utf-8"?>
<!-- Generator: Adobe Illustrator 21.1.0, SVG Export Plug-In . SVG Version: 6.00 Build 0)  -->
<svg version="1.1" id="Warstwa_1" xmlns="http://www.w3.org/2000/svg" xmlns:xlink="http://www.w3.org/1999/xlink" x="0px" y="0px"
	 viewBox="0 0 128 128" style="enable-background:new 0 0 128 128;" xml:space="preserve">
<style type="text/css">
	.st0{fill:none;}
	.st1{fill:#80B93E;}
	.st2{fill:#97C357;}
	.st3{fill:#5F9ED5;}
	.st4{fill:#6DA8DB;}
	.st5{fill:#D49EDE;}
	.st6{fill:#FABE2F;}
	.st7{fill:#FFC03C;}
	.st8{fill:#FFFFFF;}
</style>
<g>
	<path class="st0" d="M90.3,31.4c0.2,0.1,0.3,0.2,0.5,0.4C90.6,31.6,90.4,31.5,90.3,31.4z"/>
	<path class="st0" d="M49.6,24.9L49.4,25c0.3-0.1,0.5-0.2,0.8-0.3C50,24.8,49.8,24.8,49.6,24.9z"/>
	<path class="st0" d="M88.1,29.8c0.4,0.3,0.8,0.6,1.2,0.9C88.9,30.4,88.5,30.1,88.1,29.8z"/>
	<path class="st0" d="M36.6,32.4c-0.1,0-0.1,0.1-0.2,0.1c-1.6,1.2-2.7,2.3-3.5,3.4C34.1,34.6,35.3,33.5,36.6,32.4z"/>
	<path class="st0" d="M51.6,24.3c0.6-0.2,1.1-0.3,1.7-0.5C52.7,23.9,52.1,24.1,51.6,24.3z"/>
	<path class="st0" d="M87.9,29.7c-2.7-1.8-5.6-3.3-8.6-4.5L79.1,25c0,0,0,0,0,0l0.3,0.2c-6.1-2.4-12.8-3.3-19.5-2.6
		c-2.1,0.2-4.3,0.6-6.4,1.2c3.4-0.9,7-1.3,10.7-1.3C72.9,22.4,81.1,25.1,87.9,29.7z"/>
	<path class="st0" d="M32.7,94.5c0.1,0.1,0.1,0.2,0.2,0.3c0.9,0.9,1.7,1.6,2.5,2.3C34.5,96.3,33.6,95.4,32.7,94.5z"/>
	<path class="st1" d="M111.9,22.3c2.9,3.5,5.6,7.4,7.9,11.4C117.6,29.6,115,25.8,111.9,22.3z"/>
	<path class="st2" d="M79,25L79,25C79.1,25,79.1,25,79,25l0.3,0.2c3,1.2,5.9,2.7,8.6,4.5c0.1,0,0.1,0.1,0.2,0.1
		c0.4,0.3,0.8,0.6,1.2,0.9c0.3,0.2,0.6,0.5,0.9,0.7c0.2,0.1,0.3,0.2,0.5,0.4c9.9,7.9,16.2,20,16.2,33.5c0,2.5-0.2,4.9-0.6,7.3
		c4.6-5.6,6.2-11.3,6.8-17c1.3-13-1.9-26.6-7.5-39.6C94.9,6.7,81.1,0.9,65.9,0.4c-1.1,0-4.6,0.3-5.7,0.3c0,0,0.1,0,0.1,0
		c-20,1.2-39.1,11.7-50.4,30c-0.6,0.9-1.1,1.8-1.6,2.8C26.6,14.9,55.9,10.7,79,25z"/>
	<path class="st3" d="M111.9,22.3c-2.1-2.5-4.3-4.7-6.5-6.6c0,0.1,0.1,0.2,0.1,0.2C107.8,17.9,109.9,20,111.9,22.3z"/>
	<path class="st4" d="M126.5,50.3c-1-5.1-3.4-11-6.6-16.6c-2.3-4-5-7.9-7.9-11.4c-2-2.3-4.1-4.4-6.4-6.4c5.7,13,8.9,26.6,7.5,39.6
		c-0.6,5.8-2.2,11.5-6.8,17c-0.8,4.5-2.2,8.7-4.3,12.6c-1.3,2.9-3.1,5.7-5.3,8.1c-1.1,1.3-2.3,2.4-3.4,3.7c-0.3,0.4-0.5,1-0.4,1.4
		c0.3,1.2,0.8,2.3,1.3,3.4c1.7,3.2,4.2,5.6,6.9,7.8c0.9,0.8,1.8,1.7,2.6,2.6c0.2,0.2,0.3,0.4,0.3,0.5c1.1-0.1,2-0.1,2,0.1
		c0.2-0.1,0.3-0.2,0.5-0.3c-0.7,0.8,1.9-1.8,1.1-1.1C124,96.4,131.1,73.5,126.5,50.3z"/>
	<path class="st5" d="M104.1,112.8c0.1,0.4,0,0.7-0.4,0.9c-0.6,0.2-1.2,0.4-1.8,0.4c-3.8,0.4-7.5,0.1-11.2-0.8
		c-5.1-1.2-10-3-14.7-5.2c-0.9-0.4-1.8-0.8-2.8-1c-3,0.6-6,1-9.2,1c-11,0-21.1-4.2-28.7-11c-0.8-0.7-1.7-1.5-2.5-2.3
		c-0.1-0.1-0.1-0.2-0.2-0.3c-7.1-7.7-11.5-17.9-11.5-29.2c0-0.6,0-1.1,0-1.7c-0.1,0.2-0.1,0.4-0.2,0.6c-7.6,24.9,3.5,44.3,8,53.8
		c-1-0.4,12.7,7.8,30.3,9.3c20.3,1.8,34.5-4,46.7-14.2c0.1,0,0.1-0.1,0.1-0.1C106.1,112.7,105.2,112.7,104.1,112.8z"/>
	<path class="st6" d="M79.1,25L79.1,25C55.9,10.7,26.6,14.9,8.3,33.5c0,0,0,0.1-0.1,0.1C26.5,14.9,55.9,10.7,79.1,25z"/>
	<path class="st7" d="M79.1,25c-22.3-15.5-52.6-10-70.8,8.6c0,0,0-0.1,0.1-0.1c0,0,0,0-0.1,0.1c-5.5,9.8-8.3,21-8.1,32.2l0,0
		c0,0-0.1,0.1,0,0.1l0,0c0.2,9.8,2.6,19.7,7.6,28.9c0.4,0.7,0.8,1.4,1.2,2.1c3.6,6.2,10,14.6,17.3,19.2c0.9,0.6,1.9,1.3,2.8,1.8
		c-4.5-9.4-15.5-28.9-8-53.8c0.1-0.2,0.1-0.4,0.2-0.6c0.2-5.3,1.4-10.3,3.3-14.9c2-4.8,4.9-9.1,8.4-12.8c0.8-1.1,1.9-2.1,3.5-3.4
		c0.1,0,0.1-0.1,0.2-0.1c3.8-3.2,8.1-5.7,12.9-7.4l0.2-0.1c0.2-0.1,0.4-0.1,0.6-0.2c0.4-0.2,0.9-0.3,1.3-0.4
		c0.6-0.2,1.1-0.3,1.7-0.5c0,0,0.1,0,0.1,0c2.1-0.6,4.3-1,6.4-1.2c6.7-0.7,13.4,0.2,19.5,2.6L79.1,25z"/>
	<path class="st8" d="M87.9,29.7c0.1,0,0.1,0.1,0.2,0.1C88.1,29.8,88,29.7,87.9,29.7z"/>
	<path class="st8" d="M39.8,30.1c0.2-0.1,0.4-0.3,0.6-0.4c2.6-1.8,5.5-3.3,8.6-4.5l0.5-0.2c-4.7,1.7-9.1,4.2-12.9,7.4
		c0.2-0.1,0.4-0.2,0.6-0.4C38,31.3,38.9,30.7,39.8,30.1z"/>
	<path class="st8" d="M50.2,24.7c0.4-0.2,0.9-0.3,1.3-0.4C51.1,24.4,50.7,24.5,50.2,24.7z"/>
</g>
</svg>
